<?xml version="1.0" encoding="UTF-8"?><svg id="_レイヤー_2" xmlns="http://www.w3.org/2000/svg" viewBox="0 0 586.21 416.12"><defs><style>.cls-1{fill:#fff;}</style></defs><g id="Text"><g><path class="cls-1" d="M419.5,.51l-1.48,6.43h-.53l-.06-1.61c-.05-.59-.16-1.11-.34-1.57s-.44-.86-.79-1.19c-.35-.34-.8-.6-1.33-.79-.54-.19-1.13-.29-1.79-.29-1.75,0-3.28,.48-4.58,1.44-1.67,1.22-2.98,2.94-3.93,5.17-.78,1.84-1.17,3.7-1.17,5.58s.56,3.46,1.68,4.61,2.58,1.72,4.38,1.72c1.36,0,2.57-.3,3.63-.91,1.06-.61,2.04-1.54,2.95-2.8h.69c-1.07,1.71-2.27,2.97-3.57,3.77-1.31,.8-2.88,1.21-4.7,1.21-1.62,0-3.06-.34-4.31-1.02-1.25-.68-2.2-1.63-2.86-2.86s-.98-2.55-.98-3.97c0-2.17,.58-4.28,1.74-6.33s2.76-3.66,4.78-4.83,4.07-1.76,6.13-1.76c.97,0,2.05,.23,3.25,.69,.53,.2,.91,.29,1.14,.29s.44-.05,.62-.15,.47-.38,.88-.83h.54Z"/><path class="cls-1" d="M432.27,12.16c0,1.46-.39,2.92-1.17,4.35-.78,1.44-1.86,2.57-3.24,3.41s-2.73,1.26-4.04,1.26-2.43-.43-3.27-1.28c-.85-.85-1.27-1.96-1.27-3.32,0-1.44,.41-2.88,1.24-4.32,.82-1.45,1.93-2.59,3.31-3.43,1.38-.84,2.72-1.26,4.01-1.26s2.35,.42,3.19,1.27c.84,.85,1.25,1.95,1.25,3.31Zm-2.43-1.01c0-.91-.22-1.6-.67-2.09-.44-.48-1.02-.73-1.72-.73-1.44,0-2.76,1.03-3.96,3.08-1.21,2.06-1.81,4.1-1.81,6.13,0,.93,.23,1.64,.7,2.15s1.06,.75,1.77,.75c1.38,0,2.67-1.02,3.87-3.07s1.81-4.12,1.81-6.23Z"/><path class="cls-1" d="M439.9,7.57l-1.9,6.61c.85-1.55,1.57-2.72,2.17-3.5,.93-1.21,1.83-2.09,2.71-2.64,.52-.31,1.06-.47,1.63-.47,.49,0,.89,.16,1.22,.47s.48,.71,.48,1.2-.11,1.1-.34,1.88l-1.04,3.72c1.59-2.98,3.1-5.07,4.53-6.27,.79-.66,1.57-1,2.34-1,.45,0,.82,.15,1.11,.46,.29,.31,.43,.78,.43,1.43,0,.57-.09,1.17-.26,1.8l-1.61,5.7c-.35,1.24-.53,1.93-.53,2.07s.04,.25,.13,.35c.06,.07,.14,.1,.23,.1s.27-.09,.51-.28c.56-.43,1.08-1,1.57-1.7l.48,.31c-.24,.39-.68,.93-1.3,1.61s-1.15,1.15-1.59,1.39-.84,.37-1.22,.37c-.34,0-.63-.12-.86-.35s-.34-.52-.34-.86c0-.47,.2-1.41,.6-2.83l1.33-4.7c.3-1.08,.46-1.68,.48-1.8,.03-.19,.04-.37,.04-.54,0-.24-.05-.43-.16-.57-.12-.14-.25-.21-.4-.21-.41,0-.84,.21-1.3,.63-1.35,1.24-2.61,2.98-3.78,5.21-.77,1.47-1.49,3.36-2.17,5.67h-2.21l2.5-8.86c.27-.96,.41-1.6,.41-1.92,0-.26-.05-.46-.16-.59s-.24-.19-.4-.19c-.32,0-.66,.12-1.03,.35-.59,.38-1.34,1.2-2.26,2.45-.92,1.25-1.64,2.45-2.15,3.59-.24,.54-.83,2.26-1.74,5.17h-2.17l2.71-9.49,.35-1.23c.07-.19,.1-.32,.1-.41,0-.21-.1-.41-.29-.58s-.44-.26-.75-.26c-.13,0-.48,.06-1.05,.18l-.13-.54,5.05-.92Z"/><path class="cls-1" d="M461.7,7.57l-1.01,3.37c1.06-1.25,2.01-2.12,2.85-2.62,.83-.5,1.69-.75,2.56-.75s1.61,.34,2.23,1.03c.62,.69,.92,1.58,.92,2.69,0,2.15-.87,4.33-2.62,6.56s-3.78,3.33-6.11,3.33c-.49,0-.92-.05-1.3-.16s-.8-.3-1.27-.57l-1.07,3.78c-.21,.74-.32,1.23-.32,1.45s.06,.4,.17,.55c.11,.15,.3,.27,.55,.35,.25,.08,.76,.12,1.51,.12l-.13,.54h-6.9l.15-.54c.91-.04,1.52-.2,1.84-.47,.32-.27,.65-1.03,1-2.27l3.71-12.83c.22-.81,.34-1.31,.34-1.51,0-.26-.08-.47-.23-.62-.15-.15-.38-.22-.7-.22-.28,0-.68,.03-1.19,.1v-.57l5.02-.75Zm-3.41,11.72c.61,.72,1.42,1.08,2.45,1.08,.51,0,1.03-.14,1.55-.42s1.04-.7,1.55-1.26c.5-.56,.95-1.2,1.35-1.93s.76-1.58,1.08-2.57c.32-.99,.48-1.96,.48-2.93,0-.78-.18-1.38-.53-1.79-.36-.42-.77-.62-1.25-.62-1.05,0-2.1,.61-3.13,1.82s-1.78,2.63-2.26,4.25l-1.27,4.38Z"/><path class="cls-1" d="M484.19,7.92l-2.55,8.73c-.38,1.3-.57,2.12-.57,2.46,0,.18,.03,.31,.09,.39,.06,.08,.15,.12,.26,.12,.17,0,.35-.08,.55-.23,.2-.15,.71-.75,1.52-1.81l.44,.34c-.77,1.22-1.56,2.12-2.37,2.7-.54,.37-1.05,.56-1.55,.56-.38,0-.68-.11-.89-.32s-.32-.49-.32-.83,.06-.77,.19-1.32c.16-.72,.6-2.29,1.33-4.72-1.66,2.72-3.05,4.6-4.17,5.64-1.12,1.04-2.16,1.55-3.11,1.55-.45,0-.83-.16-1.14-.47s-.47-.71-.47-1.19c0-.73,.21-1.86,.64-3.37l1.27-4.53c.31-1.08,.47-1.76,.47-2.02,0-.12-.04-.22-.12-.3-.08-.08-.17-.12-.27-.12-.21,0-.41,.07-.62,.22s-.67,.69-1.39,1.63l-.45-.32c.73-1.13,1.51-1.97,2.33-2.5,.62-.42,1.2-.63,1.73-.63,.36,0,.66,.12,.89,.34s.34,.52,.34,.89c0,.53-.2,1.47-.59,2.83l-1.38,4.73c-.38,1.29-.57,2.1-.57,2.45,0,.19,.06,.33,.18,.45,.12,.11,.29,.17,.49,.17,.32,0,.74-.16,1.26-.48s1.21-1.04,2.07-2.15c.87-1.11,1.58-2.15,2.14-3.12,.56-.97,1.16-2.52,1.79-4.64l.32-1.11h2.23Z"/><path class="cls-1" d="M492.86,3.94l-1.14,3.98h2.3l-.25,.92h-2.29l-2.52,8.64c-.27,.93-.41,1.53-.41,1.8,0,.17,.04,.29,.12,.38s.17,.13,.28,.13c.24,0,.57-.17,.97-.51,.23-.2,.76-.8,1.57-1.8l.48,.37c-.9,1.31-1.75,2.23-2.55,2.77-.55,.37-1.1,.56-1.66,.56-.43,0-.78-.13-1.05-.4-.27-.27-.41-.61-.41-1.03,0-.53,.16-1.33,.47-2.42l2.45-8.48h-2.21l.15-.57c1.07-.29,1.97-.73,2.68-1.31,.71-.58,1.51-1.59,2.39-3.02h.64Z"/><path class="cls-1" d="M507.48,7.57l-2.86,9.93-.32,1.33c-.03,.13-.04,.23-.04,.32,0,.16,.05,.29,.15,.41,.08,.09,.18,.13,.29,.13,.13,0,.29-.08,.5-.23,.38-.28,.89-.87,1.52-1.76l.5,.35c-.67,1.02-1.37,1.79-2.08,2.32-.71,.53-1.37,.8-1.98,.8-.42,0-.74-.11-.95-.31-.21-.21-.31-.52-.31-.92,0-.48,.11-1.11,.32-1.89l.31-1.1c-1.28,1.67-2.46,2.84-3.53,3.5-.77,.48-1.53,.72-2.27,.72s-1.33-.3-1.85-.89c-.52-.59-.78-1.4-.78-2.44,0-1.55,.47-3.19,1.4-4.92,.93-1.72,2.12-3.1,3.55-4.14,1.12-.82,2.18-1.23,3.18-1.23,.6,0,1.09,.16,1.49,.47,.39,.31,.7,.83,.9,1.55l.53-1.67,2.33-.35Zm-5.21,.76c-.62,0-1.29,.29-1.99,.88-1,.83-1.88,2.06-2.66,3.69-.78,1.63-1.16,3.11-1.16,4.42,0,.66,.17,1.19,.5,1.58s.71,.58,1.14,.58c1.06,0,2.22-.79,3.47-2.36,1.67-2.09,2.5-4.23,2.5-6.43,0-.83-.16-1.43-.48-1.8s-.76-.56-1.32-.56Z"/><path class="cls-1" d="M516.19,3.94l-1.14,3.98h2.3l-.25,.92h-2.29l-2.52,8.64c-.27,.93-.41,1.53-.41,1.8,0,.17,.04,.29,.12,.38s.17,.13,.28,.13c.24,0,.57-.17,.97-.51,.23-.2,.76-.8,1.57-1.8l.48,.37c-.9,1.31-1.75,2.23-2.55,2.77-.55,.37-1.1,.56-1.66,.56-.43,0-.78-.13-1.05-.4-.27-.27-.41-.61-.41-1.03,0-.53,.16-1.33,.47-2.42l2.45-8.48h-2.21l.15-.57c1.07-.29,1.97-.73,2.68-1.31,.71-.58,1.51-1.59,2.39-3.02h.64Z"/><path class="cls-1" d="M523.63,7.57l-2.9,10.27c-.2,.69-.29,1.11-.29,1.25,0,.16,.05,.28,.14,.38,.09,.1,.2,.15,.33,.15,.15,0,.32-.08,.53-.23,.56-.44,1.12-1.06,1.68-1.88l.51,.34c-.66,1.02-1.45,1.87-2.34,2.56-.66,.52-1.3,.78-1.9,.78-.4,0-.73-.12-.98-.36-.25-.24-.38-.54-.38-.9s.12-.96,.37-1.8l1.9-6.56c.31-1.07,.47-1.75,.47-2.02,0-.21-.08-.39-.23-.53s-.36-.21-.62-.21c-.21,0-.66,.05-1.33,.16v-.57l5.05-.82Zm-.19-5.82c.41,0,.76,.14,1.04,.42s.42,.63,.42,1.04-.14,.75-.43,1.03c-.29,.29-.63,.43-1.03,.43s-.75-.14-1.03-.43-.43-.63-.43-1.03,.14-.76,.42-1.04,.63-.42,1.04-.42Z"/><path class="cls-1" d="M538.94,12.16c0,1.46-.39,2.92-1.17,4.35-.78,1.44-1.86,2.57-3.24,3.41s-2.73,1.26-4.04,1.26-2.43-.43-3.27-1.28c-.85-.85-1.27-1.96-1.27-3.32,0-1.44,.41-2.88,1.24-4.32,.82-1.45,1.93-2.59,3.31-3.43,1.38-.84,2.72-1.26,4.01-1.26s2.35,.42,3.19,1.27c.84,.85,1.25,1.95,1.25,3.31Zm-2.43-1.01c0-.91-.22-1.6-.67-2.09-.44-.48-1.02-.73-1.72-.73-1.44,0-2.76,1.03-3.96,3.08-1.21,2.06-1.81,4.1-1.81,6.13,0,.93,.23,1.64,.7,2.15s1.06,.75,1.77,.75c1.38,0,2.67-1.02,3.87-3.07s1.81-4.12,1.81-6.23Z"/><path class="cls-1" d="M546.69,7.57l-1.95,6.67c1.83-2.72,3.22-4.52,4.2-5.38s1.91-1.29,2.81-1.29c.49,0,.89,.16,1.21,.48s.48,.74,.48,1.26c0,.59-.14,1.37-.42,2.34l-1.79,6.17c-.21,.71-.31,1.15-.31,1.3,0,.14,.04,.25,.12,.34,.08,.09,.16,.14,.25,.14,.12,0,.26-.06,.42-.19,.52-.41,1.08-1.04,1.7-1.88l.45,.28c-.91,1.3-1.77,2.23-2.58,2.78-.57,.38-1.07,.57-1.52,.57-.36,0-.65-.11-.86-.33-.21-.22-.32-.51-.32-.89,0-.47,.17-1.27,.5-2.42l1.7-5.89c.21-.73,.32-1.3,.32-1.71,0-.2-.06-.35-.19-.48s-.28-.18-.47-.18c-.27,0-.6,.12-.98,.35-.72,.44-1.47,1.16-2.26,2.18-.78,1.01-1.61,2.3-2.48,3.87-.46,.83-.84,1.74-1.14,2.72l-.73,2.42h-2.2l2.67-9.17c.31-1.1,.47-1.77,.47-1.99s-.09-.4-.26-.56c-.17-.16-.38-.24-.64-.24-.12,0-.32,.02-.62,.06l-.56,.09-.09-.53,5.07-.91Z"/><path class="cls-1" d="M569.15,7.57l-2.86,9.93-.32,1.33c-.03,.13-.04,.23-.04,.32,0,.16,.05,.29,.15,.41,.08,.09,.18,.13,.29,.13,.13,0,.29-.08,.5-.23,.38-.28,.89-.87,1.52-1.76l.5,.35c-.67,1.02-1.37,1.79-2.08,2.32-.71,.53-1.37,.8-1.98,.8-.42,0-.74-.11-.95-.31-.21-.21-.31-.52-.31-.92,0-.48,.11-1.11,.32-1.89l.31-1.1c-1.28,1.67-2.46,2.84-3.53,3.5-.77,.48-1.53,.72-2.27,.72s-1.33-.3-1.85-.89c-.52-.59-.78-1.4-.78-2.44,0-1.55,.47-3.19,1.4-4.92,.93-1.72,2.12-3.1,3.55-4.14,1.12-.82,2.18-1.23,3.18-1.23,.6,0,1.09,.16,1.49,.47,.39,.31,.7,.83,.9,1.55l.53-1.67,2.33-.35Zm-5.21,.76c-.62,0-1.29,.29-1.99,.88-1,.83-1.88,2.06-2.66,3.69-.78,1.63-1.16,3.11-1.16,4.42,0,.66,.17,1.19,.5,1.58s.71,.58,1.14,.58c1.06,0,2.22-.79,3.47-2.36,1.67-2.09,2.5-4.23,2.5-6.43,0-.83-.16-1.43-.48-1.8s-.76-.56-1.32-.56Z"/><path class="cls-1" d="M578.99,0l-5.01,17.43c-.24,.87-.37,1.4-.37,1.6,0,.15,.05,.27,.14,.37s.21,.15,.34,.15c.19,0,.39-.08,.6-.25,.51-.4,1.04-1.02,1.6-1.86l.44,.45c-.93,1.31-1.78,2.22-2.56,2.74-.58,.37-1.12,.56-1.64,.56-.37,0-.68-.13-.93-.38-.25-.25-.37-.55-.37-.88,0-.35,.16-1.07,.47-2.17l3.97-13.74c.32-1.12,.48-1.77,.48-1.93,0-.23-.09-.43-.28-.58s-.47-.23-.86-.23c-.22,0-.57,.03-1.03,.1V.83l5.01-.83Z"/><path class="cls-1" d="M480.66,30.51l-1.48,6.43h-.53l-.06-1.61c-.05-.59-.16-1.11-.34-1.57s-.44-.86-.79-1.19c-.35-.34-.8-.6-1.33-.79-.54-.19-1.13-.29-1.79-.29-1.75,0-3.28,.48-4.58,1.44-1.67,1.22-2.98,2.94-3.93,5.17-.78,1.84-1.17,3.7-1.17,5.58s.56,3.46,1.68,4.61,2.58,1.72,4.38,1.72c1.36,0,2.57-.3,3.63-.91,1.06-.61,2.04-1.54,2.95-2.8h.69c-1.07,1.71-2.27,2.97-3.57,3.77-1.31,.8-2.88,1.21-4.7,1.21-1.62,0-3.06-.34-4.31-1.02-1.25-.68-2.2-1.63-2.86-2.86s-.98-2.55-.98-3.97c0-2.17,.58-4.28,1.74-6.33s2.76-3.66,4.78-4.83,4.07-1.76,6.13-1.76c.97,0,2.05,.23,3.25,.69,.53,.2,.91,.29,1.14,.29s.44-.05,.62-.15,.47-.38,.88-.83h.54Z"/><path class="cls-1" d="M481.12,38.39l5.05-.82-2.11,7.12c1.71-2.92,3.26-4.96,4.66-6.12,.79-.66,1.44-1,1.93-1,.32,0,.58,.09,.76,.29,.19,.19,.28,.47,.28,.83,0,.64-.17,1.26-.5,1.85-.23,.44-.57,.66-1.01,.66-.22,0-.42-.07-.58-.22-.16-.15-.26-.37-.3-.67-.02-.19-.06-.31-.13-.37-.08-.08-.17-.12-.28-.12-.17,0-.32,.04-.47,.12-.25,.14-.64,.52-1.16,1.14-.81,.96-1.69,2.2-2.64,3.72-.41,.64-.76,1.37-1.05,2.18-.41,1.11-.64,1.78-.7,2.01l-.47,1.85h-2.24l2.71-9.1c.31-1.05,.47-1.81,.47-2.26,0-.18-.07-.32-.22-.44-.2-.16-.45-.23-.78-.23-.21,0-.58,.04-1.13,.13l-.1-.54Z"/><path class="cls-1" d="M493.69,45.31c-.07,.49-.1,.89-.1,1.22,0,.87,.31,1.61,.92,2.22,.62,.61,1.36,.92,2.24,.92,.7,0,1.38-.14,2.03-.43s1.61-.93,2.89-1.91l.31,.42c-2.31,2.29-4.52,3.44-6.62,3.44-1.43,0-2.5-.45-3.22-1.35s-1.08-1.89-1.08-2.97c0-1.46,.45-2.94,1.35-4.47s2.03-2.71,3.38-3.55c1.36-.84,2.75-1.27,4.19-1.27,1.04,0,1.8,.21,2.3,.63s.75,.92,.75,1.49c0,.81-.32,1.59-.97,2.33-.85,.97-2.1,1.75-3.75,2.34-1.09,.4-2.63,.71-4.61,.94Zm.1-.72c1.45-.17,2.62-.45,3.53-.85,1.2-.54,2.1-1.18,2.7-1.93,.6-.75,.9-1.46,.9-2.13,0-.41-.13-.74-.39-1s-.63-.38-1.11-.38c-1,0-2.05,.53-3.17,1.59-1.12,1.06-1.94,2.62-2.47,4.7Z"/><path class="cls-1" d="M517.51,37.57l-2.86,9.93-.32,1.33c-.03,.13-.04,.23-.04,.32,0,.16,.05,.29,.15,.41,.08,.09,.18,.13,.29,.13,.13,0,.29-.08,.5-.23,.38-.28,.89-.87,1.52-1.76l.5,.35c-.67,1.02-1.37,1.79-2.08,2.32-.71,.53-1.37,.8-1.98,.8-.42,0-.74-.11-.95-.31-.21-.21-.31-.52-.31-.92,0-.48,.11-1.11,.32-1.89l.31-1.1c-1.28,1.67-2.46,2.84-3.53,3.5-.77,.48-1.53,.72-2.27,.72s-1.33-.3-1.85-.89c-.52-.59-.78-1.4-.78-2.44,0-1.55,.47-3.19,1.4-4.92,.93-1.72,2.12-3.1,3.55-4.14,1.12-.82,2.18-1.23,3.18-1.23,.6,0,1.09,.16,1.49,.47,.39,.31,.7,.83,.9,1.55l.53-1.67,2.33-.35Zm-5.21,.76c-.62,0-1.29,.29-1.99,.88-1,.83-1.88,2.06-2.66,3.69-.78,1.63-1.16,3.11-1.16,4.42,0,.66,.17,1.19,.5,1.58s.71,.58,1.14,.58c1.06,0,2.22-.79,3.47-2.36,1.67-2.09,2.5-4.23,2.5-6.43,0-.83-.16-1.43-.48-1.8s-.76-.56-1.32-.56Z"/><path class="cls-1" d="M526.23,33.94l-1.14,3.98h2.3l-.25,.92h-2.29l-2.52,8.64c-.27,.93-.41,1.53-.41,1.8,0,.17,.04,.29,.12,.38s.17,.13,.28,.13c.24,0,.57-.17,.97-.51,.23-.2,.76-.8,1.57-1.8l.48,.37c-.9,1.31-1.75,2.23-2.55,2.77-.55,.37-1.1,.56-1.66,.56-.43,0-.78-.13-1.05-.4-.27-.27-.41-.61-.41-1.03,0-.53,.16-1.33,.47-2.42l2.45-8.48h-2.21l.15-.57c1.07-.29,1.97-.73,2.68-1.31,.71-.58,1.51-1.59,2.39-3.02h.64Z"/><path class="cls-1" d="M533.67,37.57l-2.9,10.27c-.2,.69-.29,1.11-.29,1.25,0,.16,.05,.28,.14,.38,.09,.1,.2,.15,.33,.15,.15,0,.32-.08,.53-.23,.56-.44,1.12-1.06,1.68-1.88l.51,.34c-.66,1.02-1.45,1.87-2.34,2.56-.66,.52-1.3,.78-1.9,.78-.4,0-.73-.12-.98-.36-.25-.24-.38-.54-.38-.9s.12-.96,.37-1.8l1.9-6.56c.31-1.07,.47-1.75,.47-2.02,0-.21-.08-.39-.23-.53s-.36-.21-.62-.21c-.21,0-.66,.05-1.33,.16v-.57l5.05-.82Zm-.19-5.82c.41,0,.76,.14,1.04,.42s.42,.63,.42,1.04-.14,.75-.43,1.03c-.29,.29-.63,.43-1.03,.43s-.75-.14-1.03-.43-.43-.63-.43-1.03,.14-.76,.42-1.04,.63-.42,1.04-.42Z"/><path class="cls-1" d="M535.75,38.48l4.23-.91c.3,.72,.55,1.46,.73,2.21,.26,1.1,.48,2.41,.64,3.93,.08,.76,.19,2.37,.32,4.83,1.22-1.35,1.95-2.18,2.18-2.5,1.29-1.75,2.03-2.77,2.23-3.08,.32-.52,.55-.97,.67-1.36,.11-.29,.16-.57,.16-.83s-.23-.55-.68-.88c-.46-.33-.68-.7-.68-1.11,0-.31,.12-.59,.37-.83,.25-.24,.54-.37,.89-.37,.41,0,.77,.17,1.08,.5,.31,.34,.47,.75,.47,1.25s-.08,.98-.23,1.44c-.25,.74-.73,1.65-1.42,2.72-.69,1.07-1.81,2.5-3.35,4.3-.2,.22-1.28,1.36-3.25,3.4h-.54c-.23-6.18-.72-10.04-1.46-11.57-.24-.5-.65-.75-1.22-.75-.24,0-.59,.04-1.04,.13l-.1-.51Z"/><path class="cls-1" d="M555.32,37.57l-2.9,10.27c-.2,.69-.29,1.11-.29,1.25,0,.16,.05,.28,.14,.38,.09,.1,.2,.15,.33,.15,.15,0,.32-.08,.53-.23,.56-.44,1.12-1.06,1.68-1.88l.51,.34c-.66,1.02-1.45,1.87-2.34,2.56-.66,.52-1.3,.78-1.9,.78-.4,0-.73-.12-.98-.36-.25-.24-.38-.54-.38-.9s.12-.96,.37-1.8l1.9-6.56c.31-1.07,.47-1.75,.47-2.02,0-.21-.08-.39-.23-.53s-.36-.21-.62-.21c-.21,0-.66,.05-1.33,.16v-.57l5.05-.82Zm-.19-5.82c.41,0,.76,.14,1.04,.42s.42,.63,.42,1.04-.14,.75-.43,1.03c-.29,.29-.63,.43-1.03,.43s-.75-.14-1.03-.43-.43-.63-.43-1.03,.14-.76,.42-1.04,.63-.42,1.04-.42Z"/><path class="cls-1" d="M564.55,33.94l-1.14,3.98h2.3l-.25,.92h-2.29l-2.52,8.64c-.27,.93-.41,1.53-.41,1.8,0,.17,.04,.29,.12,.38s.17,.13,.28,.13c.24,0,.57-.17,.97-.51,.23-.2,.76-.8,1.57-1.8l.48,.37c-.9,1.31-1.75,2.23-2.55,2.77-.55,.37-1.1,.56-1.66,.56-.43,0-.78-.13-1.05-.4-.27-.27-.41-.61-.41-1.03,0-.53,.16-1.33,.47-2.42l2.45-8.48h-2.21l.15-.57c1.07-.29,1.97-.73,2.68-1.31,.71-.58,1.51-1.59,2.39-3.02h.64Z"/><path class="cls-1" d="M569.88,37.57c.33,.57,.56,1.1,.69,1.59,.13,.49,.25,1.46,.38,2.91l.64,7.21c.59-.7,1.44-1.82,2.55-3.34,.54-.74,1.2-1.75,1.99-3.03,.48-.78,.77-1.33,.88-1.64,.06-.16,.09-.32,.09-.48,0-.11-.03-.2-.1-.26s-.25-.15-.53-.24c-.29-.09-.53-.26-.72-.51-.19-.25-.29-.54-.29-.86,0-.4,.12-.72,.35-.97s.53-.37,.88-.37c.43,0,.8,.18,1.1,.53,.3,.36,.45,.85,.45,1.47,0,.77-.26,1.65-.79,2.64s-1.54,2.51-3.05,4.56-3.33,4.29-5.46,6.71c-1.47,1.67-2.57,2.72-3.28,3.16s-1.32,.65-1.83,.65c-.3,0-.57-.12-.8-.34-.23-.23-.34-.5-.34-.8,0-.38,.16-.73,.48-1.04s.66-.47,1.03-.47c.2,0,.36,.04,.48,.13,.08,.05,.16,.19,.26,.42,.09,.23,.18,.38,.26,.46,.05,.05,.11,.07,.18,.07,.06,0,.16-.05,.31-.15,.54-.33,1.16-.86,1.88-1.58,.94-.96,1.63-1.74,2.08-2.34l-.82-9.29c-.14-1.53-.34-2.47-.62-2.8s-.73-.5-1.38-.5c-.21,0-.57,.03-1.1,.09l-.13-.54,4.29-1.05Z"/><path class="cls-1" d="M545.48,80.83h-14.72l.21-.54c.78-.02,1.3-.08,1.57-.19,.41-.18,.71-.41,.91-.69,.3-.45,.62-1.26,.97-2.43l3.5-12.08c.29-1,.44-1.73,.44-2.2,0-.37-.13-.66-.4-.86-.27-.21-.77-.31-1.52-.31-.17,0-.3,0-.4-.01l.18-.54h8.1l-.12,.54c-.91,0-1.55,.09-1.93,.26s-.7,.46-.95,.86c-.18,.26-.46,1.08-.86,2.46l-3.44,11.88c-.26,.9-.4,1.52-.4,1.88,0,.23,.13,.46,.4,.67,.17,.15,.54,.22,1.13,.22h1.92c1.4,0,2.5-.18,3.33-.53,.61-.26,1.16-.66,1.67-1.19,.27-.29,.76-1.02,1.45-2.18l.38-.66h.54l-1.93,5.64Z"/><path class="cls-1" d="M562.48,67.57l-2.86,9.93-.32,1.33c-.03,.13-.04,.23-.04,.32,0,.16,.05,.29,.15,.41,.08,.09,.18,.13,.29,.13,.13,0,.29-.08,.5-.23,.38-.28,.89-.87,1.52-1.76l.5,.35c-.67,1.02-1.37,1.79-2.08,2.32-.71,.53-1.37,.8-1.98,.8-.42,0-.74-.11-.95-.31-.21-.21-.31-.52-.31-.92,0-.48,.11-1.11,.32-1.89l.31-1.1c-1.28,1.67-2.46,2.84-3.53,3.5-.77,.48-1.53,.72-2.27,.72s-1.33-.3-1.85-.89c-.52-.59-.78-1.4-.78-2.44,0-1.55,.47-3.19,1.4-4.92,.93-1.72,2.12-3.1,3.55-4.14,1.12-.82,2.18-1.23,3.18-1.23,.6,0,1.09,.16,1.49,.47,.39,.31,.7,.83,.9,1.55l.53-1.67,2.33-.35Zm-5.21,.76c-.62,0-1.29,.29-1.99,.88-1,.83-1.88,2.06-2.66,3.69-.78,1.63-1.16,3.11-1.16,4.42,0,.66,.17,1.19,.5,1.58s.71,.58,1.14,.58c1.06,0,2.22-.79,3.47-2.36,1.67-2.09,2.5-4.23,2.5-6.43,0-.83-.16-1.43-.48-1.8s-.76-.56-1.32-.56Z"/><path class="cls-1" d="M572.06,60l-2.89,10.12c.94-.98,1.75-1.65,2.45-2.01s1.43-.54,2.19-.54c1.07,0,1.95,.36,2.64,1.07s1.03,1.68,1.03,2.9c0,1.57-.45,3.14-1.35,4.7s-2.03,2.77-3.38,3.64-2.7,1.3-4.01,1.3c-1.47,0-2.99-.55-4.54-1.66l4.45-15.34c.34-1.18,.51-1.88,.51-2.08,0-.25-.08-.44-.23-.57-.22-.18-.56-.26-1-.26-.21,0-.52,.03-.94,.1v-.56l5.07-.82Zm-5.67,19.69c.98,.54,1.84,.81,2.58,.81,.86,0,1.75-.32,2.67-.94,.92-.63,1.72-1.69,2.4-3.19,.68-1.49,1.02-3,1.02-4.53,0-.9-.22-1.6-.67-2.11-.45-.51-.97-.76-1.58-.76-.91,0-1.8,.36-2.67,1.09s-1.49,1.74-1.86,3.04l-1.9,6.59Z"/></g><g><path class="cls-1" d="M9.57,365.91l6.14,15.57,3.33-11.63c.27-.96,.41-1.7,.41-2.23,0-.36-.13-.64-.38-.85s-.73-.31-1.42-.31c-.12,0-.24,0-.37-.01l.16-.54h6.39l-.18,.54c-.66,0-1.16,.06-1.48,.21-.46,.21-.8,.47-1.03,.79-.31,.46-.63,1.26-.95,2.4l-4.67,16.38h-.53l-6.61-16.76-3.53,12.38c-.26,.94-.4,1.66-.4,2.15,0,.37,.12,.65,.36,.84,.24,.19,.81,.32,1.71,.39l-.15,.54H.13l.21-.54c.78-.02,1.3-.09,1.57-.21,.4-.18,.7-.41,.89-.69,.28-.43,.6-1.26,.95-2.49l3.94-13.81c-.38-.59-.79-.99-1.22-1.21-.43-.22-1.11-.34-2.03-.37l.16-.54h4.97Z"/><path class="cls-1" d="M26.18,372.52c.48,.51,.84,1.02,1.08,1.52,.18,.35,.46,1.27,.86,2.77l1.29-1.93c.34-.47,.76-.92,1.25-1.34,.49-.43,.92-.72,1.29-.87,.23-.1,.49-.15,.78-.15,.42,0,.75,.11,1,.34,.25,.22,.37,.5,.37,.82,0,.37-.07,.62-.22,.76-.27,.24-.59,.37-.94,.37-.21,0-.42-.04-.66-.13-.46-.16-.77-.23-.92-.23-.23,0-.51,.14-.83,.41-.61,.51-1.33,1.49-2.17,2.94l1.2,5.04c.19,.77,.34,1.23,.47,1.38,.13,.15,.25,.23,.38,.23,.21,0,.44-.11,.72-.34,.54-.45,1-1.04,1.38-1.76l.51,.26c-.62,1.15-1.4,2.11-2.34,2.87-.54,.43-.99,.64-1.36,.64-.55,0-.98-.31-1.3-.92-.21-.38-.63-2.02-1.27-4.92-1.52,2.65-2.74,4.35-3.66,5.11-.6,.49-1.17,.73-1.73,.73-.39,0-.75-.14-1.07-.42-.23-.21-.35-.5-.35-.86,0-.32,.11-.59,.32-.81s.48-.32,.79-.32,.64,.16,1,.47c.25,.22,.45,.34,.59,.34,.12,0,.27-.08,.45-.23,.46-.37,1.08-1.17,1.88-2.4s1.31-2.12,1.55-2.67c-.61-2.37-.93-3.63-.98-3.76-.22-.63-.52-1.08-.88-1.35s-.89-.4-1.6-.4c-.22,0-.48,0-.78,.03v-.53l3.91-.69Z"/><path class="cls-1" d="M38.98,365.91h7.82c2.05,0,3.58,.44,4.6,1.33s1.52,1.96,1.52,3.23c0,1.01-.32,1.98-.97,2.93s-1.6,1.72-2.87,2.31-2.64,.89-4.12,.89c-.92,0-2.08-.17-3.5-.5l-1.58,5.42c-.37,1.29-.56,2.14-.56,2.55,0,.31,.13,.57,.4,.78s.89,.34,1.89,.4l-.15,.54h-7.9l.16-.54c1.04,0,1.75-.18,2.16-.53s.84-1.34,1.31-2.95l3.28-11.31c.39-1.36,.59-2.27,.59-2.72,0-.34-.14-.62-.42-.85-.28-.22-.89-.36-1.84-.41l.16-.54Zm2.74,9.26c1.1,.28,1.99,.42,2.67,.42,1.06,0,2.03-.22,2.91-.66s1.56-1.1,2.05-1.98,.74-1.79,.74-2.74-.3-1.77-.91-2.34-1.52-.86-2.75-.86c-.66,0-1.47,.08-2.42,.25l-2.29,7.91Z"/><path class="cls-1" d="M73.73,365.46l-1.48,6.43h-.53l-.06-1.61c-.05-.59-.16-1.11-.34-1.57s-.44-.86-.79-1.19c-.35-.34-.8-.6-1.33-.79-.54-.19-1.13-.29-1.79-.29-1.75,0-3.28,.48-4.58,1.44-1.67,1.22-2.98,2.94-3.93,5.17-.78,1.84-1.17,3.7-1.17,5.58s.56,3.46,1.68,4.61,2.58,1.72,4.38,1.72c1.36,0,2.57-.3,3.63-.91,1.06-.61,2.04-1.54,2.95-2.8h.69c-1.07,1.71-2.27,2.97-3.57,3.77-1.31,.8-2.88,1.21-4.7,1.21-1.62,0-3.06-.34-4.31-1.02-1.25-.68-2.2-1.63-2.86-2.86s-.98-2.55-.98-3.97c0-2.17,.58-4.28,1.74-6.33s2.76-3.66,4.78-4.83,4.07-1.76,6.13-1.76c.97,0,2.05,.23,3.25,.69,.53,.2,.91,.29,1.14,.29s.44-.05,.62-.15,.47-.38,.88-.83h.54Z"/><path class="cls-1" d="M75.12,383.15c.42,0,.77,.14,1.06,.43,.29,.29,.43,.64,.43,1.05s-.15,.76-.44,1.05c-.29,.29-.64,.43-1.05,.43s-.76-.14-1.05-.43c-.29-.29-.43-.64-.43-1.05s.14-.76,.43-1.05c.29-.29,.64-.43,1.05-.43Z"/><path class="cls-1" d="M14.72,415.77H0l.21-.54c.78-.02,1.3-.08,1.57-.19,.41-.18,.71-.41,.91-.69,.3-.45,.62-1.26,.97-2.43l3.5-12.08c.29-1,.44-1.73,.44-2.2,0-.37-.13-.66-.4-.86-.27-.21-.77-.31-1.52-.31-.17,0-.3,0-.4-.01l.18-.54H13.55l-.12,.54c-.91,0-1.55,.09-1.93,.26s-.7,.46-.95,.86c-.18,.26-.46,1.08-.86,2.46l-3.44,11.88c-.26,.9-.4,1.52-.4,1.88,0,.23,.13,.46,.4,.67,.17,.15,.54,.22,1.13,.22h1.92c1.4,0,2.5-.18,3.33-.53,.61-.26,1.16-.66,1.67-1.19,.27-.29,.76-1.02,1.45-2.18l.38-.66h.54l-1.93,5.64Z"/><path class="cls-1" d="M31.73,402.52l-2.86,9.93-.32,1.33c-.03,.13-.04,.23-.04,.32,0,.16,.05,.29,.15,.41,.08,.09,.18,.13,.29,.13,.13,0,.29-.08,.5-.23,.38-.28,.89-.87,1.52-1.76l.5,.35c-.67,1.02-1.37,1.79-2.08,2.32-.71,.53-1.37,.8-1.98,.8-.42,0-.74-.11-.95-.31-.21-.21-.31-.52-.31-.92,0-.48,.11-1.11,.32-1.89l.31-1.1c-1.28,1.67-2.46,2.84-3.53,3.5-.77,.48-1.53,.72-2.27,.72s-1.33-.3-1.85-.89c-.52-.59-.78-1.4-.78-2.44,0-1.55,.47-3.19,1.4-4.92,.93-1.72,2.12-3.1,3.55-4.14,1.12-.82,2.18-1.23,3.18-1.23,.6,0,1.09,.16,1.49,.47,.39,.31,.7,.83,.9,1.55l.53-1.67,2.33-.35Zm-5.21,.76c-.62,0-1.29,.29-1.99,.88-1,.83-1.88,2.06-2.66,3.69-.78,1.63-1.16,3.11-1.16,4.42,0,.66,.17,1.19,.5,1.58s.71,.58,1.14,.58c1.06,0,2.22-.79,3.47-2.36,1.67-2.09,2.5-4.23,2.5-6.43,0-.83-.16-1.43-.48-1.8s-.76-.56-1.32-.56Z"/><path class="cls-1" d="M41.31,394.94l-2.89,10.12c.94-.98,1.75-1.65,2.45-2.01s1.43-.54,2.19-.54c1.07,0,1.95,.36,2.64,1.07s1.03,1.68,1.03,2.9c0,1.57-.45,3.14-1.35,4.7s-2.03,2.77-3.38,3.64-2.7,1.3-4.01,1.3c-1.47,0-2.99-.55-4.54-1.66l4.45-15.34c.34-1.18,.51-1.88,.51-2.08,0-.25-.08-.44-.23-.57-.22-.18-.56-.26-1-.26-.21,0-.52,.03-.94,.1v-.56l5.07-.82Zm-5.67,19.69c.98,.54,1.84,.81,2.58,.81,.86,0,1.75-.32,2.67-.94,.92-.63,1.72-1.69,2.4-3.19,.68-1.49,1.02-3,1.02-4.53,0-.9-.22-1.6-.67-2.11-.45-.51-.97-.76-1.58-.76-.91,0-1.8,.36-2.67,1.09s-1.49,1.74-1.86,3.04l-1.9,6.59Z"/></g><g><path class="cls-1" d="M338.1,415.88v-10.65h-3.55v-21.92h17.98v-84.4h-3.51v10.6h-3.74v20.63h-3.68v10.83h-3.4v21.58h-3.74v10.83h-3.68v20.97h-3.74v10.77h-3.74v10.79h-7.06v-10.65h-3.68v-21.98h-3.74v-9.76h-3.74v-21.64h-3.34v-21.64h-3.74v-10.77h-3.74v-20.63h-3.68v-10.76h-3.7v95.08h18.04v32.75h-43.38v-10.7h-3.69v-21.92h18.05v-95.27h-18.01v-21.92h3.5v-10.76h36.49v21.41h3.74v11.17h3.34v21.64h3.74v20.57h3.74v10.83h3.68v21.64h3.74v10.71h3.4v-10.64h3.68v-21.64h3.74v-10.77h3.68v-20.57h3.74v-10.83h3.34v-21.98h3.74v-10.77h3.74v-10.8h32.71v10.69h3.7v21.92h-18.04v95.27h18v21.98h-3.55v10.71h-43.63Z"/><path class="cls-1" d="M582.45,319.32h-10.65v-9.66h-3.68v-10.77h-3.74v-10.84h-10.77v-11.1h-33.11v10.97h-3.66v21.64h7.26v9.82h43.92v10.78h7.06v10.78h7.38v53.39h-3.53v10.84h-10.83v10.72h-36.49v-10.64h-11.11v-10.75h-7.06v21.4h-7.46v-10.61h-3.67v-53.36h10.96v10.68h3.4v10.78h7.45v9.82h11.11v11.09h29v-11h7.42v-20.57h-3.58v-10.84h-40.14v-10.83h-18.26v-10.77h-3.74v-10.83h-3.61v-31.44h3.56v-11.11h3.68v-10.78h10.83v-10.8h33.05v10.68h14.54v10.72h7.12v-21.41h7.33v64.01Z"/><path class="cls-1" d="M389.11,199.96v-10.77h3.61v-10.83h-3.52v-9.82h-25.68v-10.78h-29.06v-10.84h-7.4v-10.78h-3.63v-31.77h3.51v-10.77h3.74v-10.84h7.39v-10.76h40.2v10.64h10.83v10.79h3.68v-21.44h10.72v53.22h-3.51v10.72h-7.12v-10.62h-3.68v-11.17h-3.74v-9.76h-7.12v-10.79h-40.14v10.66h-3.63v9.82h3.52v11.11h21.97v10.84h29v10.84h10.83v10.77h3.65v42.25h-3.56v10.77h-3.34v10.83h-11.17v11.06h-29.06v-10.96h-14.82v-10.75h-7.12v10.58h-11.08v-63.58h7.28v10.61h3.68v9.82h3.74v10.78h7.12v10.84h14.82v10.75h21.63v-10.66h7.45Z"/><path class="cls-1" d="M429.18,104.28h-18.03v-32.26h90.98v63.98h-6.94v-10.66h-3.68v-20.9h-51.31v31.5h25.52v-10.61h3.68v-11.1h7.41v63.94h-7.31v-20.39h-29.28v42.11h21.74v21.52h-50.79v-21.46h18.01V104.28Z"/><path class="cls-1" d="M473.13,351.87h3.74v21.52h3.34v9.76h18.19v32.76h-47.02v-32.63h14.29v-20.57h-3.59v-10.8h-40.14v21.5h-3.36v9.76h14.33v32.74h-43.67v-32.61h18.02v-20.63h3.74v-10.77h3.74v-10.83h3.68v-10.83h3.4v-20.57h3.74v-10.83h3.68v-10.83h3.74v-21.92h3.68v-10.73h10.83v10.6h3.68v10.83h3.74v11.11h3.4v10.83h3.68v20.63h3.74v10.77h3.74v10.83h3.68v10.89Zm-40.05-21.78h21.74v-10.76h-3.62v-9.81h-3.73v-10.76h-3.73v-10.7h-3.67v10.78h-3.45v10.82h-3.56v20.42Z"/><path class="cls-1" d="M188.2,383.18v32.68h-43.39v-32.56h18.03v-20.63h3.4v-10.77h3.74v-10.83h3.68v-10.83h3.74v-20.57h3.74v-10.83h3.68v-10.83h3.4v-21.92h3.68v-10.73h11.17v10.61h3.34v10.83h3.74v11.11h3.74v10.83h3.68v20.63h3.74v10.77h3.4v10.83h3.68v10.78h3.68v21.64h3.74v9.76h18.18v32.76h-47.36v-32.63h14.63v-20.57h-3.6v-10.8h-40.14v21.51h-3.7v9.76h14.39Zm.16-73.61v20.5h21.74v-10.71h-3.69v-9.81h-3.33v-10.82h-3.78v-10.66h-3.67v10.8h-3.73v10.7h-3.54Z"/><path class="cls-1" d="M520.51,125.31h-3.69v52.93h3.62v10.83h3.68v10.78h11.11v10.76h25.35v-10.62h7.45v-10.84h7.06v-20.55h11.12v9.64h-3.56v21.58h-3.74v10.83h-3.68v10.84h-10.83v11.06h-36.49v-10.97h-11.11v-10.83h-3.4v-10.77h-3.74v-10.83h-3.61V114.19h3.51v-9.82h3.74v-10.77h3.4v-10.84h11.11v-10.76h32.77v10.63h11.17v10.79h3.34v-21.43h7.34v53.15h-10.6v-10.94h-3.74v-9.82h-11.11v-10.76h-25.35v10.63h-7.45v9.82h-3.68v11.23Z"/><path class="cls-1" d="M93.32,415.88v-10.65h-3.55v-21.92h21.69v-95.26h-21.7v-21.98h3.56v-10.75h47.58v32.61h-18.05v95.27h18.01v21.98h-3.55v10.71h-43.97Z"/><path class="cls-1" d="M71.5,340.92h-7.09v10.86h-3.73v10.77h-3.73v10.8h-7.34v-10.67h3.52v-10.77h3.73v-10.83h3.67v-10.83h3.7v-10.77h-3.59v-9.9l-.05,.05h10.78v-10.77h3.67v-10.82h3.79v-11.12h3.61v21.85h-3.55v10.76h-3.73v9.81h-3.71c0,7.29,0,14.46,0,21.63,0,0,.05-.05,.05-.05Z"/><path class="cls-1" d="M56.98,298.7h-3.71v-10.66h-3.7v-11.12h7.36c0,7.27,0,14.55,0,21.83,0,0,.05-.05,.05-.05Z"/><path class="cls-1" d="M60.65,309.58h-3.67c0-3.67,0-7.27,0-10.88,0,0-.05,.05-.05,.05,1.17,0,2.33,0,3.66,0,0,3.74,0,7.31,0,10.88,0,0,.05-.05,.05-.05Z"/><path class="cls-1" d="M75.21,351.73h-3.72c0-3.57,0-7.19,0-10.81,0,0-.05,.05-.05,.05,1.16,0,2.32,0,3.72,0,0,3.71,0,7.26,0,10.81,0,0,.05-.05,.05-.05Z"/><path class="cls-1" d="M78.87,362.61h-3.66c0-3.66,0-7.27,0-10.87,0,0-.05,.05-.05,.05,1.17,0,2.33,0,3.65,0v10.87l.05-.05Z"/><path class="cls-1" d="M78.82,362.66h3.63v10.68h-3.58c0-3.59,0-7.16,0-10.72,0,0-.05,.05-.05,.05Z"/></g></g></svg>